<svg width="24" height="24" viewBox="0 0 24 24" fill="none" xmlns="http://www.w3.org/2000/svg">
<path d="M2 9H5V21H2C1.73478 21 1.48043 20.8946 1.29289 20.7071C1.10536 20.5196 1 20.2652 1 20V10C1 9.73478 1.10536 9.48043 1.29289 9.29289C1.48043 9.10536 1.73478 9 2 9ZM7.293 7.707L13.693 1.307C13.7781 1.22169 13.8911 1.16997 14.0112 1.16133C14.1314 1.1527 14.2506 1.18773 14.347 1.26L15.2 1.9C15.4369 2.07784 15.6158 2.32185 15.7143 2.60126C15.8127 2.88066 15.8262 3.18295 15.753 3.47L14.6 8H21C21.5304 8 22.0391 8.21071 22.4142 8.58579C22.7893 8.96086 23 9.46957 23 10V12.104C23.0003 12.3654 22.9493 12.6242 22.85 12.866L19.755 20.381C19.6795 20.5642 19.5513 20.7209 19.3866 20.8311C19.2219 20.9413 19.0282 21.0001 18.83 21H8C7.73478 21 7.48043 20.8946 7.29289 20.7071C7.10536 20.5196 7 20.2652 7 20V8.414C7.00006 8.1488 7.10545 7.89449 7.293 7.707Z" fill="white"/>
</svg>
